<?xml version="1.0" encoding="UTF-8"?>
<svg width="1000px" height="200px" viewBox="0 0 1000 200" version="1.1" xmlns="http://www.w3.org/2000/svg" xmlns:xlink="http://www.w3.org/1999/xlink">
    <title>画板</title>
    <g id="画板" stroke="none" stroke-width="1" fill="none" fill-rule="evenodd">
        <g id="OneBash" transform="translate(166.833984, 37.041016)" fill-rule="nonzero">
            <path d="M64.0722656,0 C81.0644531,0 95.6396484,6.18164063 107.797852,18.5449219 C119.956055,30.9082031 126.035156,45.703125 126.035156,62.9296875 C126.035156,80.4492188 119.912109,95.3320312 107.666016,107.578125 C95.4199219,119.824219 80.5371094,125.947266 63.0175781,125.947266 C45.6152344,125.947266 30.7617188,119.794922 18.4570312,107.490234 C6.15234375,95.1855469 0,80.3320312 0,62.9296875 C0,45.3515625 6.19628906,30.46875 18.5888672,18.28125 C30.9814453,6.09375 46.1425781,0 64.0722656,0 Z M63.0175781,35.3320312 C55.6933594,35.3320312 49.453125,38.0273438 44.296875,43.4179688 C39.140625,48.8085938 36.5625,55.3125 36.5625,62.9296875 C36.5625,70.546875 39.1552734,77.0507812 44.3408203,82.4414062 C49.5263672,87.8320312 55.7519531,90.5273438 63.0175781,90.5273438 C70.4003906,90.5273438 76.6552734,87.8466797 81.7822266,82.4853516 C86.9091797,77.1240234 89.4726562,70.6054688 89.4726562,62.9296875 C89.4726562,55.2539062 86.9091797,48.7353516 81.7822266,43.3740234 C76.6552734,38.0126953 70.4003906,35.3320312 63.0175781,35.3320312 Z" id="形状" fill="#1571FF"></path>
            <path d="M214.896094,122.958984 L182.025,122.958984 L182.025,73.4765625 C182.025,68.4375 179.944922,65.9179688 175.784766,65.9179688 C171.683203,65.9179688 169.632422,68.4375 169.632422,73.4765625 L169.632422,122.958984 L136.761328,122.958984 L136.761328,74.0917969 C136.761328,62.6660156 140.540625,53.0419922 148.099219,45.2197266 C155.657813,37.3974609 164.915625,33.4863281 175.872656,33.4863281 C188.411719,33.4863281 198.460547,38.0273438 206.019141,47.109375 C211.937109,54.1992188 214.896094,64.0722656 214.896094,76.7285156 L214.896094,122.958984 Z" id="路径" fill="#1571FF"></path>
            <path d="M316.589062,84.4628906 L266.755078,84.4628906 C265.993359,81.9433594 265.6125,79.6289062 265.6125,77.5195312 C265.6125,74.5898438 266.139844,71.71875 267.194531,68.90625 L283.89375,68.90625 C282.721875,62.4023438 279.059766,59.1503906 272.907422,59.1503906 C268.805859,59.1503906 265.466016,60.8935547 262.887891,64.3798828 C260.309766,67.8662109 259.020703,72.3339844 259.020703,77.7832031 C259.020703,83.4667969 260.26582,88.0664062 262.756055,91.5820312 C265.246289,95.0976562 268.512891,96.8554688 272.555859,96.8554688 C275.837109,96.8554688 279.001172,95.2148438 282.048047,91.9335938 L300.76875,114.433594 C292.038281,121.289062 282.341016,124.716797 271.676953,124.716797 C258.669141,124.716797 247.741406,120.351562 238.89375,111.621094 C230.046094,102.890625 225.622266,92.0800781 225.622266,79.1894531 C225.622266,66.3574219 230.090039,55.5175781 239.025586,46.6699219 C247.961133,37.8222656 258.932812,33.3984375 271.940625,33.3984375 C284.655469,33.3984375 295.33418,37.7197266 303.976758,46.3623047 C312.619336,55.0048828 316.940625,65.6542969 316.940625,78.3105469 C316.940625,79.5996094 316.823437,81.6503906 316.589062,84.4628906 Z" id="路径" fill="#1571FF"></path>
            <path d="M329.073047,2.98828125 L372.666797,2.98828125 C398.506641,2.98828125 411.426563,13.1542969 411.426563,33.4863281 C411.426563,43.5644531 407.002734,51.9433594 398.155078,58.6230469 C410.987109,64.1894531 417.403125,74.1210938 417.403125,88.4179688 C417.403125,99.375 413.623828,108.105469 406.065234,114.609375 C402.373828,117.714844 398.41875,119.882812 394.2,121.113281 C389.98125,122.34375 384.297656,122.958984 377.149219,122.958984 L370.381641,122.958984 L370.381641,92.109375 L376.446094,92.109375 C380.020313,92.109375 382.539844,91.6552734 384.004688,90.7470703 C385.469531,89.8388672 386.201953,88.2421875 386.201953,85.9570312 C386.201953,82.0898438 383.213672,80.15625 377.237109,80.15625 L370.381641,80.15625 L370.381641,48.1640625 C376.944141,48.1640625 380.225391,45.9082031 380.225391,41.3964844 C380.225391,37.2363281 377.266406,35.15625 371.348438,35.15625 L364.756641,35.15625 L364.756641,122.958984 L329.073047,122.958984 L329.073047,2.98828125 Z" id="路径" fill="#151515"></path>
            <path d="M474.447656,90.0878906 L474.447656,124.101562 C471.752344,124.570312 469.291406,124.804688 467.064844,124.804688 C453.88125,124.804688 442.894922,120.46875 434.105859,111.796875 C425.316797,103.125 420.922266,92.2558594 420.922266,79.1894531 C420.922266,66.4746094 425.360742,55.6933594 434.237695,46.8457031 C443.114648,37.9980469 453.910547,33.5742188 466.625391,33.5742188 C480.805078,33.5742188 491.981836,37.7197266 500.155664,46.0107422 C508.329492,54.3017578 512.416406,65.625 512.416406,79.9804688 L512.416406,122.958984 L479.545312,122.958984 L479.545312,82.3535156 C479.545312,77.7246094 478.417383,74.0332031 476.161523,71.2792969 C473.905664,68.5253906 470.873437,67.1484375 467.064844,67.1484375 C463.607812,67.1484375 460.619531,68.4082031 458.1,70.9277344 C455.580469,73.4472656 454.320703,76.4355469 454.320703,79.8925781 C454.320703,83.5253906 455.463281,86.5136719 457.748437,88.8574219 C460.033594,91.2011719 462.933984,92.3730469 466.449609,92.3730469 C469.320703,92.3730469 471.986719,91.6113281 474.447656,90.0878906 Z" id="路径" fill="#151515"></path>
            <path d="M582.908203,36.5625 L582.908203,71.1914062 C578.279297,71.1914062 575.100586,72.0556641 573.37207,73.7841797 C571.643555,75.5126953 570.544922,78.9257812 570.076172,84.0234375 C568.552734,100.957031 561.990234,112.910156 550.388672,119.882812 C544.236328,123.515625 535.505859,125.332031 524.197266,125.332031 L519.626953,125.332031 L519.626953,90.5273438 L521.121094,90.5273438 C526.394531,90.5273438 530.15918,89.4287109 532.415039,87.2314453 C534.670898,85.0341797 535.974609,81.1816406 536.326172,75.6738281 C536.794922,66.7089844 537.629883,60.4101562 538.831055,56.7773438 C540.032227,53.1445312 542.478516,49.5410156 546.169922,45.9667969 C552.615234,39.6972656 561.550781,36.5625 572.976562,36.5625 L582.908203,36.5625 Z" id="路径" fill="#151515"></path>
            <path d="M622.901953,2.98828125 L622.901953,39.6386719 C628.468359,35.5957031 634.034766,33.5742188 639.601172,33.5742188 C648.038672,33.5742188 654.733008,36.6210938 659.68418,42.7148438 C664.635352,48.8085938 667.110938,57.0410156 667.110938,67.4121094 L667.110938,122.958984 L634.239844,122.958984 L634.239844,76.640625 C634.239844,72.890625 633.844336,70.3710938 633.05332,69.0820312 C632.262305,67.7929688 630.724219,67.1484375 628.439063,67.1484375 C624.747656,67.1484375 622.901953,69.8730469 622.901953,75.3222656 L622.901953,122.958984 L590.030859,122.958984 L590.030859,2.98828125 L622.901953,2.98828125 Z" id="路径" fill="#151515"></path>
        </g>
    </g>
</svg>