<?xml version="1.0" encoding="UTF-8"?>
<svg width="1000px" height="200px" viewBox="0 0 1000 200" version="1.1" xmlns="http://www.w3.org/2000/svg" xmlns:xlink="http://www.w3.org/1999/xlink">
    <title>banner</title>
    <g id="banner" stroke="none" stroke-width="1" fill="none" fill-rule="evenodd">
        <rect fill="#FFFFFF" x="0" y="0" width="1000" height="200"></rect>
        <g id="OneBash" transform="translate(203.000000, 43.703125)" fill-rule="nonzero">
            <path d="M56.953125,0 C72.0572917,0 85.0130208,5.49479167 95.8203125,16.484375 C106.627604,27.4739583 112.03125,40.625 112.03125,55.9375 C112.03125,71.5104167 106.588542,84.7395833 95.703125,95.625 C84.8177083,106.510417 71.5885417,111.953125 56.015625,111.953125 C40.546875,111.953125 27.34375,106.484375 16.40625,95.546875 C5.46875,84.609375 0,71.40625 0,55.9375 C0,40.3125 5.5078125,27.0833333 16.5234375,16.25 C27.5390625,5.41666667 41.015625,0 56.953125,0 Z M56.015625,31.40625 C49.5052083,31.40625 43.9583333,33.8020833 39.375,38.59375 C34.7916667,43.3854167 32.5,49.1666667 32.5,55.9375 C32.5,62.7083333 34.8046875,68.4895833 39.4140625,73.28125 C44.0234375,78.0729167 49.5572917,80.46875 56.015625,80.46875 C62.578125,80.46875 68.1380208,78.0859375 72.6953125,73.3203125 C77.2526042,68.5546875 79.53125,62.7604167 79.53125,55.9375 C79.53125,49.1145833 77.2526042,43.3203125 72.6953125,38.5546875 C68.1380208,33.7890625 62.578125,31.40625 56.015625,31.40625 Z" id="形状" fill="#1571FF"></path>
            <path d="M186.862475,109.296875 L157.471513,109.296875 L157.471513,65.0532601 C157.471513,60.5476936 155.611657,58.2949104 151.891945,58.2949104 C148.224623,58.2949104 146.390963,60.5476936 146.390963,65.0532601 L146.390963,109.296875 L117,109.296875 L117,65.6033583 C117,55.3872483 120.379175,46.7821402 127.137525,39.7880341 C133.895874,32.793928 142.173543,29.296875 151.97053,29.296875 C163.182056,29.296875 172.166994,33.3571239 178.925344,41.4776216 C184.216765,47.8168488 186.862475,56.6446157 186.862475,67.9609222 L186.862475,109.296875 Z" id="路径" fill="#1571FF"></path>
            <path d="M272.859375,75.078125 L228.5625,75.078125 C227.885417,72.8385417 227.546875,70.78125 227.546875,68.90625 C227.546875,66.3020833 228.015625,63.75 228.953125,61.25 L243.796875,61.25 C242.755208,55.46875 239.5,52.578125 234.03125,52.578125 C230.385417,52.578125 227.416667,54.1276042 225.125,57.2265625 C222.833333,60.3255208 221.6875,64.296875 221.6875,69.140625 C221.6875,74.1927083 222.794271,78.28125 225.007813,81.40625 C227.221354,84.53125 230.125,86.09375 233.71875,86.09375 C236.635417,86.09375 239.447917,84.6354167 242.15625,81.71875 L243.796875,79.5685603 C250.050527,79.5049099 259.738027,79.5049099 272.859375,79.5685603 C270.876584,87.6453445 268.313758,93.2575267 261.648438,99.21875 C252.750688,106.979167 244.776316,110.859375 232.9375,110.859375 C221.375541,110.859375 211.661458,106.979167 203.796875,99.21875 C195.932292,91.4583333 192,81.8489583 192,70.390625 C192,58.984375 195.971354,49.3489583 203.914062,41.484375 C211.856771,33.6197917 221.609375,29.6875 233.171875,29.6875 C244.473958,29.6875 253.966146,33.5286458 261.648438,41.2109375 C269.330729,48.8932292 273.171875,58.359375 273.171875,69.609375 C273.171875,70.7552083 273.067708,72.578125 272.859375,75.078125 Z" id="路径" fill="#1571FF"></path>
            <path d="M296.40625,2.65625 L335.15625,2.65625 C358.125,2.65625 369.609375,11.6927083 369.609375,29.765625 C369.609375,38.7239583 365.677083,46.171875 357.8125,52.109375 C369.21875,57.0572917 374.921875,65.8854167 374.921875,78.59375 C374.921875,88.3333333 371.5625,96.09375 364.84375,101.875 C361.5625,104.635417 358.046875,106.5625 354.296875,107.65625 C350.546875,108.75 345.494792,109.296875 339.140625,109.296875 L333.125,109.296875 L333.125,81.875 L338.515625,81.875 C341.692708,81.875 343.932292,81.4713542 345.234375,80.6640625 C346.536458,79.8567708 347.1875,78.4375 347.1875,76.40625 C347.1875,72.96875 344.53125,71.25 339.21875,71.25 L333.125,71.25 L333.125,42.8125 C338.958333,42.8125 341.875,40.8072917 341.875,36.796875 C341.875,33.0989583 339.244792,31.25 333.984375,31.25 L328.125,31.25 L328.125,109.296875 L296.40625,109.296875 L296.40625,2.65625 Z" id="路径" fill="#151515"></path>
            <path d="M424.828125,80.078125 L424.828125,109.5 C422.434,109.484375 420.244792,109.5 418.265625,109.5 C406.546875,109.5 396.78125,107.083333 388.96875,99.375 C381.15625,91.6666667 377.25,82.0052083 377.25,70.390625 C377.25,59.0885417 381.195312,49.5052083 389.085938,41.640625 C396.976562,33.7760417 406.572917,29.84375 417.875,29.84375 C430.479167,29.84375 440.414062,33.5286458 447.679688,40.8984375 C454.945312,48.2682292 458.578125,58.3333333 458.578125,71.09375 L458.578125,109.296875 L429.359375,109.296875 L429.359375,73.203125 C429.359375,69.0885417 428.356771,65.8072917 426.351562,63.359375 C424.346354,60.9114583 421.651042,59.6875 418.265625,59.6875 C415.192708,59.6875 412.536458,60.8072917 410.296875,63.046875 C408.057292,65.2864583 406.9375,67.9427083 406.9375,71.015625 C406.9375,74.2447917 407.953125,76.9010417 409.984375,78.984375 C412.015625,81.0677083 414.59375,82.109375 417.71875,82.109375 C420.270833,82.109375 422.640625,81.4322917 424.828125,80.078125 Z" id="路径" fill="#151515"></path>
            <path d="M520.827351,29.5 L520.827351,60.7079208 C516.655734,60.7079208 513.791048,61.4867987 512.233292,63.0445545 C510.675536,64.6023102 509.685437,67.6782178 509.262995,72.2722772 C507.890058,87.5330033 501.975866,98.3052805 491.520421,104.589109 C485.975866,107.863036 478.10788,109.5 467.91646,109.5 L463.797649,109.5 L463.797649,78.1336634 L465.144183,78.1336634 C469.896658,78.1336634 473.289398,77.1435644 475.322401,75.1633663 C477.355404,73.1831683 478.530322,69.7112211 478.847153,64.7475248 C479.269596,56.6683168 480.022071,50.9917492 481.104579,47.7178218 C482.187087,44.4438944 484.391708,41.1963696 487.718441,37.9752475 C493.527021,32.3250825 501.579827,29.5 511.876856,29.5 L520.827351,29.5 Z" id="路径" fill="#151515"></path>
            <path d="M555.1875,2.65625 L555.1875,35.234375 C560.135417,31.640625 565.083333,29.84375 570.03125,29.84375 C577.53125,29.84375 583.481771,32.5520833 587.882812,37.96875 C592.283854,43.3854167 594.484375,50.703125 594.484375,59.921875 L594.484375,109.296875 L565.265625,109.296875 L565.265625,68.125 C565.265625,64.7916667 564.914062,62.5520833 564.210938,61.40625 C563.507812,60.2604167 562.140625,59.6875 560.109375,59.6875 C556.828125,59.6875 555.1875,62.109375 555.1875,66.953125 L555.1875,109.296875 L525.96875,109.296875 L525.96875,2.65625 L555.1875,2.65625 Z" id="路径" fill="#151515"></path>
        </g>
    </g>
</svg>